<svg width="552" height="61" viewBox="0 0 552 61" fill="none" xmlns="http://www.w3.org/2000/svg">
<rect width="365" height="61" fill="#F3EBE1"/>
<rect width="9" height="61" fill="#FC5933"/>
<path d="M220.344 20.2007V22.4019C221.228 22.5441 221.95 22.8361 222.512 23.2778C223.073 23.7196 223.609 24.3971 224.118 25.3105L221.928 26.5347C221.269 25.3368 220.408 24.7378 219.345 24.7378C218.686 24.7378 218.139 24.9325 217.705 25.3218C217.271 25.7111 217.054 26.1978 217.054 26.7817C217.054 27.3133 217.23 27.755 217.582 28.1069C217.926 28.4513 218.622 28.8594 219.67 29.3311C220.576 29.7428 221.325 30.1322 221.917 30.499C222.508 30.8584 222.953 31.2065 223.253 31.5435C224.099 32.4569 224.522 33.5612 224.522 34.8564C224.522 36.1292 224.14 37.2523 223.376 38.2256C222.62 39.1914 221.61 39.8428 220.344 40.1797V42.5044H218.379V40.2471C216.911 40.0075 215.792 39.5021 215.021 38.731C214.25 37.9598 213.681 36.7694 213.314 35.1597L215.785 34.6431C216.122 35.7811 216.533 36.5934 217.02 37.0801C217.529 37.5443 218.207 37.7764 219.053 37.7764C219.876 37.7764 220.565 37.5106 221.119 36.979C221.666 36.4549 221.939 35.7773 221.939 34.9463C221.939 34.2051 221.711 33.6099 221.254 33.1606C221.022 32.9435 220.677 32.7002 220.221 32.4307C219.771 32.1536 219.195 31.8542 218.491 31.5322C217.039 30.8809 216.084 30.2819 215.627 29.7354C214.901 28.9193 214.538 27.9422 214.538 26.8042C214.538 26.2651 214.624 25.7635 214.796 25.2993C214.969 24.8351 215.216 24.4159 215.538 24.0415C215.867 23.6597 216.271 23.3302 216.75 23.0532C217.23 22.7762 217.772 22.5591 218.379 22.4019V20.2007H220.344ZM232.428 25.1084H229.43L230.867 22.6602H235.045V40H232.428V25.1084ZM241.008 38.7422C241.008 38.3229 241.162 37.9598 241.469 37.6528C241.776 37.3459 242.143 37.1924 242.569 37.1924C242.996 37.1924 243.363 37.3459 243.67 37.6528C243.977 37.9598 244.13 38.3267 244.13 38.7534C244.13 39.1877 243.977 39.5583 243.67 39.8652C243.37 40.1647 243.004 40.3145 242.569 40.3145C242.128 40.3145 241.757 40.1647 241.458 39.8652C241.158 39.5658 241.008 39.1914 241.008 38.7422ZM258.213 25.1084H252.868L252.014 27.9834C252.141 27.9684 252.261 27.9572 252.374 27.9497C252.493 27.9422 252.602 27.9385 252.699 27.9385C254.384 27.9385 255.765 28.5075 256.843 29.6455C257.929 30.776 258.472 32.2248 258.472 33.9917C258.472 35.8185 257.858 37.3234 256.63 38.5063C255.402 39.6893 253.856 40.2808 251.992 40.2808C249.693 40.2808 247.881 39.2026 246.556 37.0464L248.533 35.373C249.079 36.3014 249.63 36.9565 250.184 37.3384C250.738 37.7127 251.415 37.8999 252.216 37.8999C253.264 37.8999 254.144 37.533 254.855 36.7993C255.567 36.0431 255.922 35.126 255.922 34.0479C255.922 32.9398 255.57 32.0339 254.867 31.3301C254.163 30.6038 253.283 30.2407 252.228 30.2407C251.052 30.2407 250.038 30.7536 249.184 31.7793H248.319L251.048 22.6602H258.213V25.1084ZM274.273 25.1196V40H271.656V25.1196H267.669V22.6602H278.249V25.1196H274.273ZM279.315 29.0615H281.842V30.0386C282.306 29.5519 282.718 29.2188 283.078 29.0391C283.444 28.8519 283.879 28.7583 284.38 28.7583C285.047 28.7583 285.743 28.9754 286.469 29.4097L285.312 31.7231C284.833 31.3787 284.365 31.2065 283.909 31.2065C282.531 31.2065 281.842 32.2472 281.842 34.3286V40H279.315V29.0615ZM290.804 29.0615V40H288.277V29.0615H290.804ZM287.896 24.5132C287.896 24.0715 288.056 23.6896 288.378 23.3677C288.7 23.0457 289.086 22.8848 289.535 22.8848C289.992 22.8848 290.381 23.0457 290.703 23.3677C291.025 23.6821 291.186 24.0677 291.186 24.5244C291.186 24.9811 291.025 25.3704 290.703 25.6924C290.389 26.0143 290.003 26.1753 289.546 26.1753C289.09 26.1753 288.7 26.0143 288.378 25.6924C288.056 25.3704 287.896 24.9774 287.896 24.5132ZM296.532 21.0317V40H294.005V21.0317H296.532ZM302.259 21.0317V40H299.732V21.0317H302.259ZM307.987 29.0615V40H305.46V29.0615H307.987ZM305.078 24.5132C305.078 24.0715 305.239 23.6896 305.561 23.3677C305.883 23.0457 306.269 22.8848 306.718 22.8848C307.174 22.8848 307.564 23.0457 307.886 23.3677C308.208 23.6821 308.369 24.0677 308.369 24.5244C308.369 24.9811 308.208 25.3704 307.886 25.6924C307.571 26.0143 307.186 26.1753 306.729 26.1753C306.272 26.1753 305.883 26.0143 305.561 25.6924C305.239 25.3704 305.078 24.9774 305.078 24.5132ZM310.671 34.4521C310.671 32.8724 311.236 31.5285 312.367 30.4204C313.497 29.3123 314.875 28.7583 316.5 28.7583C318.132 28.7583 319.517 29.3161 320.655 30.4316C321.778 31.5472 322.339 32.9173 322.339 34.542C322.339 36.1816 321.774 37.5555 320.644 38.6636C319.506 39.7642 318.109 40.3145 316.455 40.3145C314.815 40.3145 313.441 39.7529 312.333 38.6299C311.225 37.5218 310.671 36.1292 310.671 34.4521ZM313.254 34.4971C313.254 35.5902 313.546 36.4549 314.13 37.0913C314.729 37.7352 315.519 38.0571 316.5 38.0571C317.488 38.0571 318.278 37.7389 318.869 37.1025C319.461 36.4661 319.756 35.6164 319.756 34.5532C319.756 33.4901 319.461 32.6403 318.869 32.0039C318.27 31.36 317.48 31.0381 316.5 31.0381C315.534 31.0381 314.751 31.36 314.152 32.0039C313.553 32.6478 313.254 33.4788 313.254 34.4971ZM325.023 29.0615H327.562V30.0723C328.445 29.1963 329.441 28.7583 330.549 28.7583C331.822 28.7583 332.814 29.1589 333.525 29.96C334.139 30.6413 334.446 31.7531 334.446 33.2954V40H331.908V33.8906C331.908 32.8125 331.758 32.0675 331.458 31.6558C331.167 31.2365 330.635 31.0269 329.864 31.0269C329.025 31.0269 328.43 31.3039 328.078 31.8579C327.734 32.4045 327.562 33.359 327.562 34.7217V40H325.023V29.0615Z" fill="black"/>
</svg>
