<svg width="623" height="61" viewBox="0 0 623 61" fill="none" xmlns="http://www.w3.org/2000/svg">
<rect width="365" height="61" fill="#F3EBE1"/>
<rect width="112" height="61" fill="#FC5933"/>
<path d="M288.761 37.5405H295.219V40H283.573L289.592 32.7114C290.184 31.9852 290.678 31.3563 291.075 30.8247C291.479 30.2931 291.786 29.8477 291.996 29.4883C292.422 28.7845 292.636 28.1519 292.636 27.5903C292.636 26.7817 292.351 26.1042 291.782 25.5576C291.213 25.0111 290.509 24.7378 289.671 24.7378C287.919 24.7378 286.916 25.7747 286.661 27.8486H284.056C284.475 24.195 286.32 22.3682 289.592 22.3682C291.172 22.3682 292.497 22.8698 293.568 23.873C294.646 24.8763 295.185 26.1191 295.185 27.6016C295.185 28.5449 294.934 29.4696 294.433 30.3755C294.178 30.8472 293.804 31.4087 293.31 32.0601C292.823 32.7039 292.205 33.4676 291.457 34.3511L288.761 37.5405ZM306.225 22.0537L308.145 23.4912L304.001 29.1289C304.226 29.099 304.417 29.0765 304.574 29.0615C304.731 29.0465 304.854 29.0391 304.944 29.0391C306.352 29.0391 307.569 29.5781 308.594 30.6562C309.612 31.7194 310.122 32.9997 310.122 34.4971C310.122 36.0843 309.553 37.4469 308.415 38.585C307.284 39.7155 305.925 40.2808 304.338 40.2808C302.766 40.2808 301.388 39.723 300.205 38.6074C299.045 37.4919 298.464 36.1704 298.464 34.6431C298.464 33.2729 299.03 31.8205 300.16 30.2856L306.225 22.0537ZM307.572 34.6655C307.572 33.7446 307.254 32.966 306.618 32.3296C305.974 31.6857 305.199 31.3638 304.293 31.3638C303.38 31.3638 302.605 31.682 301.968 32.3184C301.332 32.9548 301.014 33.7259 301.014 34.6318C301.014 35.5378 301.332 36.3089 301.968 36.9453C302.605 37.5817 303.383 37.8999 304.304 37.8999C305.203 37.8999 305.97 37.5817 306.606 36.9453C307.25 36.3014 307.572 35.5415 307.572 34.6655ZM312.255 26.5122C312.255 25.4266 312.671 24.4832 313.502 23.6821C314.348 22.881 315.325 22.4805 316.433 22.4805C317.571 22.4805 318.552 22.8848 319.375 23.6934C320.199 24.4945 320.611 25.4528 320.611 26.5684C320.611 27.6914 320.199 28.6535 319.375 29.4546C318.552 30.2557 317.56 30.6562 316.399 30.6562C315.261 30.6562 314.284 30.2482 313.468 29.4321C312.66 28.616 312.255 27.6427 312.255 26.5122ZM314.209 26.5459C314.209 27.1748 314.427 27.7064 314.861 28.1406C315.295 28.5749 315.823 28.792 316.444 28.792C317.051 28.792 317.571 28.5749 318.005 28.1406C318.44 27.7064 318.657 27.1823 318.657 26.5684C318.657 25.9619 318.44 25.4416 318.005 25.0073C317.571 24.5731 317.047 24.356 316.433 24.356C315.819 24.356 315.295 24.5731 314.861 25.0073C314.427 25.4416 314.209 25.9544 314.209 26.5459ZM326.282 22.3569L327.506 23.0532L317.579 40.2808L316.343 39.5396L326.282 22.3569ZM323.228 36.0132C323.228 34.9351 323.643 33.9954 324.474 33.1943C325.32 32.3932 326.297 31.9927 327.405 31.9927C328.551 31.9927 329.535 32.397 330.359 33.2056C331.182 34.0067 331.594 34.965 331.594 36.0806C331.594 37.2111 331.179 38.1732 330.348 38.9668C329.532 39.7604 328.54 40.1572 327.372 40.1572C326.234 40.1572 325.257 39.7529 324.44 38.9443C323.632 38.1357 323.228 37.1587 323.228 36.0132ZM325.193 36.0581C325.193 36.687 325.406 37.2186 325.833 37.6528C326.267 38.0871 326.795 38.3042 327.417 38.3042C328.03 38.3042 328.551 38.0871 328.978 37.6528C329.412 37.2186 329.629 36.6945 329.629 36.0806C329.629 35.4666 329.412 34.9425 328.978 34.5083C328.551 34.0741 328.027 33.8569 327.405 33.8569C326.799 33.8569 326.278 34.0741 325.844 34.5083C325.41 34.9425 325.193 35.4591 325.193 36.0581Z" fill="black"/>
</svg>
